<?xml version="1.0" encoding="utf-8"?>
<!-- Generator: Adobe Illustrator 25.2.0, SVG Export Plug-In . SVG Version: 6.00 Build 0)  -->
<svg version="1.1" id="Layer_1" xmlns="http://www.w3.org/2000/svg" xmlns:xlink="http://www.w3.org/1999/xlink" x="0px" y="0px"
	 viewBox="0 0 524.1 177.9" style="enable-background:new 0 0 524.1 177.9;" xml:space="preserve">
<style type="text/css">
	.st0{fill:#DE070F;}
</style>
<g>
	<path d="M158.9,159.3h21.6c-4.1,13.6-14.4,20.5-30.9,20.5c-10.3,0-18.5-2.9-24.5-8.8c-6-5.9-9-13.9-9-24.2c0-9.6,3-17.3,9-23.1
		c6-5.8,14-8.7,23.9-8.7c6,0,11.8,1.4,17.3,4.2c5.5,2.8,9.6,6.5,12.1,11.1c2.5,4.6,3.9,11.9,4.2,21.9h-42.8
		c0.4,9,3.7,13.5,10.1,13.5c2.2,0,4.1-0.6,5.8-1.8C157.5,162.8,158.6,161.2,158.9,159.3z M140.3,141.7h18.6c-0.2-4.3-1-7.4-2.4-9.5
		c-1.4-2-3.7-3.1-6.7-3.1c-3.4,0-5.9,1-7.3,3C141,134.2,140.3,137.3,140.3,141.7z"/>
	<path d="M238.2,84.8h25.5v93H238v-8h-0.4c-5.7,6.7-12.2,10-19.3,10c-7.5,0-13.6-2.9-18.2-8.8c-4.6-5.9-6.9-13.8-6.9-23.6
		c0-9.8,2.4-17.7,7.1-23.5c4.7-5.9,10.9-8.8,18.6-8.8c7,0,13.4,3,19.3,9V84.8z M238.2,147c0-10-3.2-15-9.7-15c-6.7,0-10,5.3-10,15.9
		c0,4.7,0.9,8.4,2.7,10.9c1.8,2.6,4.3,3.9,7.5,3.9c2.9,0,5.3-1.4,7-4.1C237.3,155.9,238.2,152.1,238.2,147z"/>
	<path d="M323.7,177.9v-8h-0.4c-3.1,3.4-6.1,6-9.1,7.6c-2.9,1.6-6.3,2.4-10.3,2.4c-7.7,0-13.9-2.9-18.5-8.8
		c-4.6-5.9-6.9-13.9-6.9-24c0-9.7,2.3-17.5,7-23.2c4.6-5.8,10.8-8.7,18.4-8.7c4.1,0,7.5,0.8,10.3,2.3c2.8,1.5,5.8,4,8.8,7.3h0.4
		v-7.6h25.7v60.8H323.7z M323.7,147.2c0-10.1-3.3-15.1-9.9-15.1c-6.7,0-10,5-10,15.1c0,10.5,3.4,15.7,10.3,15.7
		C320.6,162.9,323.7,157.6,323.7,147.2z"/>
	<path d="M372,100.9h25.7v16.2h10v16h-10.2v44.8H372V133h-9.7v-15.8h9.7V100.9z"/>
	<path d="M458.9,159.3h21.6c-4.1,13.6-14.4,20.5-30.9,20.5c-10.3,0-18.5-2.9-24.5-8.8c-6-5.9-9-13.9-9-24.2c0-9.6,3-17.3,9-23.1
		c6-5.8,14-8.7,23.9-8.7c6,0,11.8,1.4,17.3,4.2c5.5,2.8,9.6,6.5,12.1,11.1c2.5,4.6,3.9,11.9,4.2,21.9h-42.8
		c0.4,9,3.7,13.5,10.1,13.5c2.2,0,4.1-0.6,5.8-1.8C457.5,162.8,458.5,161.2,458.9,159.3z M440.3,141.7h18.6c-0.2-4.3-1-7.4-2.4-9.5
		c-1.4-2-3.7-3.1-6.7-3.1c-3.4,0-5.9,1-7.3,3C441,134.2,440.3,137.3,440.3,141.7z"/>
	<path d="M498.5,84.8h25.7v93h-25.7V84.8z"/>
</g>
<path class="st0" d="M113.8,106.1c0,0-14.1,34.6-20.7,53.3c-6.6,18.7-8.8,18.7-16.2,18.4c-7.3-0.3-15.2,0-16.9-5.8
	c-1.8-5.8,0-11.9,3.3-20.5c3.3-8.6,3.4-11.1,7.8-11.7c4.4-0.6,9.1,1.8,12-2.1c2.9-3.9,10.1-15.7,8.8-23.1c-1.3-7.5-8.7-6.6-6.8-12.9
	c1.9-6.3,14.7-2.1,18.8-6.8c4.2-4.7,30.3-59.9,30.3-59.9s3.7-6.9-2.9-6.9c-7.5,0-60.3,4.8-83.2,10.6S12.7,55,20.1,65.9
	c7.5,10.9,14.5,16.8,12,20c-2.5,3.2-4.2,2.4-10.2-2.5S3.4,66.4,0.4,53.7S3.2,34.1,27.3,28s96.3-13.1,109.1-13.8s13.3-2,15-5.1
	c1.8-3,9-3.4,15.2-0.6c6.2,2.8,18.2,3.5,28.9,2c10.7-1.5,11.9-2.3,20.2-6.7c8.3-4.4,14-4.2,20.3-3.5c6.3,0.6,11.9,5.8,12.4,12.1
	c0.5,6.3-2.7,7.2-7.8,7.6c-5.2,0.4-74.4,5.1-83.5,6.3c0,0-3.3,0.4-5.4,3.8c-2.1,3.4-30.9,62.3-30.9,62.3s49.6-2.5,66.3-2.5
	c16.7,0,24.1,5.8,26.1,9.9c2,4,0.3,8.3-9.2,9.6c-9.5,1.3-17.1,1.6-20.8,0.3c-3.8-1.4-4.7-4-13.4-4.2
	C161.1,105.3,113.8,106.1,113.8,106.1z"/>
<path class="st0" d="M433.4,107.8c0,0,21.9-1.1,32.6,2.3c10.7,3.4,16.2,8.1,16.2,8.1s-5.1-13.9-23.6-16.9
	C440.1,98.3,433.4,107.8,433.4,107.8z"/>
</svg>
