<?xml version="1.0" encoding="utf-8"?>
<!-- Generator: Adobe Illustrator 23.0.5, SVG Export Plug-In . SVG Version: 6.00 Build 0)  -->
<svg version="1.1" id="Capa_1" xmlns="http://www.w3.org/2000/svg" xmlns:xlink="http://www.w3.org/1999/xlink" x="0px" y="0px"
	 viewBox="0 0 512 512" style="enable-background:new 0 0 512 512;" xml:space="preserve">
<style type="text/css">
	.st0{fill:#FFFFFF;}
	.st1{fill:#47242E;}
</style>
<path class="st0" d="M365.3,300L280,243.2V120c0-13.3-10.7-24-24-24s-24,10.7-24,24v135.1c0,8.9,4,16.4,10.7,20l96,64
	c11,8.2,25.9,5.2,32.4-5.8C379.3,322.3,376.3,307.4,365.3,300z M365.3,300L280,243.2V120c0-13.3-10.7-24-24-24s-24,10.7-24,24v135.1
	c0,8.9,4,16.4,10.7,20l96,64c11,8.2,25.9,5.2,32.4-5.8C379.3,322.3,376.3,307.4,365.3,300z M365.3,300L280,243.2V120
	c0-13.3-10.7-24-24-24s-24,10.7-24,24v135.1c0,8.9,4,16.4,10.7,20l96,64c11,8.2,25.9,5.2,32.4-5.8
	C379.3,322.3,376.3,307.4,365.3,300z"/>
<path class="st1" d="M256,0C114.6,0,0,114.6,0,256s114.6,256,256,256s256-114.6,256-256S397.4,0,256,0z M371.1,333.3
	c-6.5,11-21.4,14-32.4,5.8l-96-64c-6.7-3.6-10.7-11.1-10.7-20V120c0-13.3,10.7-24,24-24s24,10.7,24,24v123.2l85.3,56.8
	C376.3,307.4,379.3,322.3,371.1,333.3z"/>
</svg>
