<?xml version="1.0" encoding="utf-8"?>
<!-- Generator: Adobe Illustrator 23.0.5, SVG Export Plug-In . SVG Version: 6.00 Build 0)  -->
<svg version="1.1" id="Capa_1" focusable="false" xmlns="http://www.w3.org/2000/svg" xmlns:xlink="http://www.w3.org/1999/xlink"
	 x="0px" y="0px" viewBox="0 0 29 29" style="enable-background:new 0 0 29 29;" xml:space="preserve">
<style type="text/css">
	.st0{fill:#47242E;}
	.st1{fill:#FFFFFF;}
</style>
<path class="st0" d="M28.9,20.5c-0.1,2.3-0.6,4.4-2.3,6.1c-1.7,1.7-3.8,2.2-6.1,2.3c-2.4,0.1-9.6,0.1-12,0c-2.3-0.1-4.4-0.6-6.1-2.3
	c-1.7-1.7-2.2-3.8-2.3-6.1c-0.1-2.4-0.1-9.6,0-12c0.1-2.3,0.6-4.4,2.3-6.1c1.7-1.7,3.8-2.2,6.1-2.3c2.4-0.1,9.6-0.1,12,0
	c2.3,0.1,4.4,0.6,6.1,2.3c1.7,1.7,2.2,3.8,2.3,6.1C29,10.9,29,18.1,28.9,20.5z"/>
<path class="st1" d="M19,15.6l0.5-3.5h-3.3V9.9c0-1,0.5-1.9,2-1.9h1.5V5c0,0-1.4-0.2-2.7-0.2c-2.7,0-4.5,1.7-4.5,4.7v2.7H9.4v3.5
	h3.1V24h3.8v-8.4H19z"/>
</svg>
