<?xml version="1.0" encoding="utf-8"?>
<!-- Generator: Adobe Illustrator 25.2.0, SVG Export Plug-In . SVG Version: 6.00 Build 0)  -->
<svg version="1.1" id="Layer_1" xmlns="http://www.w3.org/2000/svg" xmlns:xlink="http://www.w3.org/1999/xlink" x="0px" y="0px"
	 viewBox="0 0 60 60" style="enable-background:new 0 0 60 60;" xml:space="preserve">
<style type="text/css">
	.st0{fill:none;stroke:#000000;stroke-width:1.5;stroke-linecap:round;stroke-linejoin:round;stroke-miterlimit:10;}
</style>
<rect x="5" y="37.8" class="st0" width="50" height="12.1"/>
<path class="st0" d="M10.5,42.3h38.7c0.9,0,1.6,0.7,1.6,1.6V50H9v-6.1C9,43,9.7,42.3,10.5,42.3z"/>
<polyline class="st0" points="55,37.8 49.4,29.9 10.2,29.9 5,37.8 "/>
<path class="st0" d="M41.5,29.9l8.2-21.6c0.5-1.2,1.8-1.8,3-1.4c0.9,0.4,1.5,1.2,1.5,2.2c0,0.3-0.1,0.6-0.2,0.8l-7.6,19.9"/>
<path class="st0" d="M13.4,29.9L5.8,9.9C5.7,9.7,5.7,9.4,5.7,9.1c0-1,0.6-1.9,1.5-2.2c1.2-0.5,2.6,0.2,3,1.4l8.2,21.6"/>
<path class="st0" d="M49.4,53.3H39c-0.8,0-1.4-0.6-1.4-1.4v-0.5c0-0.8,0.6-1.4,1.4-1.4h10.4c0.8,0,1.4,0.6,1.4,1.4v0.5
	C50.8,52.6,50.2,53.3,49.4,53.3z"/>
<path class="st0" d="M20.8,53.3H10.4c-0.8,0-1.4-0.6-1.4-1.4v-0.5c0-0.8,0.6-1.4,1.4-1.4h10.4c0.8,0,1.4,0.6,1.4,1.4v0.5
	C22.2,52.6,21.5,53.3,20.8,53.3z"/>
<rect x="38.1" y="45.6" width="1.5" height="2.4"/>
<rect x="41.5" y="45.6" width="1.5" height="2.4"/>
<rect x="44.9" y="45.6" width="1.5" height="2.4"/>
<path class="st0" d="M32.4,22.5c0,0-2.5-2.3-5.1,0"/>
<path class="st0" d="M34.4,20c0,0-4-3.5-9.3,0"/>
<path class="st0" d="M23,17.5c0,0,6.2-5.9,14,0"/>
<path class="st0" d="M39,14.9c0,0-9.4-8.3-18.4,0"/>
</svg>
