<?xml version="1.0" encoding="utf-8"?>
<!-- Generator: Adobe Illustrator 25.2.0, SVG Export Plug-In . SVG Version: 6.00 Build 0)  -->
<svg class="svg" version="1.1" id="Layer_1" xmlns="http://www.w3.org/2000/svg" xmlns:xlink="http://www.w3.org/1999/xlink" x="0px" y="0px"
	 viewBox="0 0 60 60" style="enable-background:new 0 0 60 60;" xml:space="preserve">
<style type="text/css">
	.st0{fill:none;stroke:#000000;stroke-width:1.5;stroke-linecap:round;stroke-linejoin:round;stroke-miterlimit:10;}
	
</style>

<path class="st0" d="M26.1,32.2H5.5c-1.3,0-2.3-1-2.3-2.3V5.7c0-1.3,1-2.3,2.3-2.3h24.9c1.3,0,2.3,1,2.3,2.3v1.3"/>
<path class="st0" d="M9.9,3.4h20.5c1.3,0,2.3,1,2.3,2.3v24.2c0,1.3-1,2.3-2.3,2.3h-1"/>
<line class="st0" x1="29.6" y1="32.2" x2="29.4" y2="32.2"/>
<rect x="10.5" y="12.8" class="st0" width="14.5" height="10"/>
<polyline class="st0" points="22.5,15.4 20,20 17.3,15.4 13.5,15.4 "/>
<line class="st0" x1="15.7" y1="15.4" x2="15.7" y2="20"/>
<line class="st0" x1="29.6" y1="5.8" x2="28.5" y2="5.8"/>
<line class="st0" x1="25.8" y1="5.8" x2="20.1" y2="5.8"/>
<circle cx="13.5" cy="29.1" r="1.3"/>
<circle cx="17.8" cy="29.1" r="1.3"/>
<circle cx="22.1" cy="29.1" r="1.3"/>
<rect x="23.5" y="45.5" class="st0" width="33.2" height="8.1"/>
<path class="st0" d="M27.7,48.5h24.7c0.9,0,1.6,0.7,1.6,1.6v3.5H26.2v-3.5C26.2,49.2,26.9,48.5,27.7,48.5z"/>
<polyline class="st0" points="56.7,45.5 53,40.2 27,40.2 23.5,45.5 "/>
<path class="st0" d="M47.7,40.2l5.4-14.4c0.3-0.8,1.2-1.2,2-0.9c0.6,0.2,1,0.8,1,1.5c0,0.2,0,0.4-0.1,0.6l-5,13.2"/>
<path class="st0" d="M29.1,40.2l-5-13.2C24,26.8,24,26.6,24,26.4c0-0.6,0.4-1.2,1-1.5c0.8-0.3,1.7,0.1,2,0.9l5.4,14.4"/>
<path class="st0" d="M52.9,55.8h-6.6c-0.6,0-1.1-0.5-1.1-1.1l0,0c0-0.6,0.5-1.1,1.1-1.1h6.6c0.6,0,1.1,0.5,1.1,1.1l0,0
	C54,55.3,53.5,55.8,52.9,55.8z"/>
<path class="st0" d="M33.8,55.8h-6.6c-0.6,0-1.1-0.5-1.1-1.1l0,0c0-0.6,0.5-1.1,1.1-1.1h6.6c0.6,0,1.1,0.5,1.1,1.1l0,0
	C34.9,55.3,34.4,55.8,33.8,55.8z"/>
<rect x="45.5" y="50.7" width="1" height="1.6"/>
<rect x="47.7" y="50.7" width="1" height="1.6"/>
<rect x="50" y="50.7" width="1" height="1.6"/>
<path class="st0" d="M41.7,35.3c0,0-1.6-1.5-3.4,0"/>
<path class="st0" d="M43.1,33.7c0,0-2.7-2.3-6.2,0"/>
<path class="st0" d="M35.5,32c0,0,4.1-3.9,9.3,0"/>
<path class="st0" d="M46.1,30.3c0,0-6.3-5.5-12.2,0"/>
</svg>
