<?xml version="1.0" encoding="utf-8"?>
<!-- Generator: Adobe Illustrator 25.2.0, SVG Export Plug-In . SVG Version: 6.00 Build 0)  -->
<svg version="1.1" id="Layer_1" xmlns="http://www.w3.org/2000/svg" xmlns:xlink="http://www.w3.org/1999/xlink" x="0px" y="0px"
	 viewBox="0 0 60 60" style="enable-background:new 0 0 60 60;" xml:space="preserve">
<style type="text/css">
	.st0{fill:none;stroke:#000000;stroke-width:1.5;stroke-linecap:round;stroke-linejoin:round;stroke-miterlimit:10;}
	.st1{fill:none;stroke:#000000;stroke-width:2;stroke-linecap:round;stroke-linejoin:round;stroke-miterlimit:10;}
	.st2{fill:none;stroke:#000000;stroke-width:2;stroke-miterlimit:10;}
</style>
<g>
	<path class="st0" d="M37.7,52.3H6.5c-1.7,0-3-1.3-3-3V17.8c0-1.7,1.4-3,3-3h32.3c1.7,0,3,1.4,3,3v1.7"/>
	<path class="st0" d="M53.9,56.9H40.9c-1.5,0-2.7-1.2-2.7-2.7V22.1c0-1.5,1.2-2.7,2.7-2.7h12.9c1.5,0,2.7,1.2,2.7,2.7v32.1
		C56.6,55.7,55.3,56.9,53.9,56.9z"/>
	<rect x="13" y="27.1" class="st0" width="18.8" height="13"/>
	<polyline class="st0" points="28.5,30.3 25.2,36.4 21.7,30.3 16.8,30.3 	"/>
	<line class="st0" x1="19.7" y1="30.3" x2="19.7" y2="36.4"/>
	<path class="st1" d="M45,11.7c0,0,3.2-2.6,6.8,0"/>
	<path class="st1" d="M53.9,8.8c0,0-5.5-4.3-11.3,0"/>
	<path class="st1" d="M56.2,6c0,0-7.7-6.6-16.4,0"/>
	<line class="st0" x1="37.7" y1="17.9" x2="36.4" y2="17.9"/>
	<line class="st0" x1="32.8" y1="17.9" x2="25.4" y2="17.9"/>
	<circle class="st2" cx="47.4" cy="44.7" r="4.7"/>
	<circle cx="16.8" cy="48.2" r="1.7"/>
	<circle cx="22.4" cy="48.2" r="1.7"/>
	<circle cx="28" cy="48.2" r="1.7"/>
	<line class="st0" x1="41.5" y1="23.3" x2="43.8" y2="23.3"/>
	<line class="st0" x1="51.2" y1="23.3" x2="52.3" y2="23.3"/>
	<line class="st0" x1="43.5" y1="28.9" x2="41.8" y2="28.9"/>
	<line class="st0" x1="47.9" y1="28.9" x2="46.2" y2="28.9"/>
	<line class="st0" x1="52.3" y1="28.9" x2="50.6" y2="28.9"/>
	<line class="st0" x1="43.5" y1="31.7" x2="41.8" y2="31.7"/>
	<line class="st0" x1="47.9" y1="31.7" x2="46.2" y2="31.7"/>
	<line class="st0" x1="52.3" y1="31.7" x2="50.6" y2="31.7"/>
	<line class="st0" x1="43.5" y1="34.4" x2="41.8" y2="34.4"/>
	<line class="st0" x1="47.9" y1="34.4" x2="46.2" y2="34.4"/>
	<line class="st0" x1="52.3" y1="34.4" x2="50.6" y2="34.4"/>
	<line class="st0" x1="44.4" y1="52.6" x2="42.7" y2="52.6"/>
	<line class="st0" x1="51.7" y1="52.6" x2="50" y2="52.6"/>
</g>
</svg>
