<?xml version="1.0" encoding="utf-8"?>
<!-- Generator: Adobe Illustrator 23.0.5, SVG Export Plug-In . SVG Version: 6.00 Build 0)  -->
<svg version="1.1" id="Capa_1" focusable="false" xmlns="http://www.w3.org/2000/svg" xmlns:xlink="http://www.w3.org/1999/xlink"
	 x="0px" y="0px" viewBox="0 0 29 29" style="enable-background:new 0 0 29 29;" xml:space="preserve">
<style type="text/css">
	.st0{fill:#47242E;}
</style>
<path class="st0" d="M14.5,7.1c-4.1,0-7.4,3.3-7.4,7.4c0,4.1,3.3,7.4,7.4,7.4c4.1,0,7.4-3.3,7.4-7.4C21.9,10.4,18.6,7.1,14.5,7.1z
	 M14.5,19.3c-2.7,0-4.8-2.2-4.8-4.8s2.2-4.8,4.8-4.8c2.7,0,4.8,2.2,4.8,4.8S17.2,19.3,14.5,19.3L14.5,19.3z M24,6.8
	c0,1-0.8,1.7-1.7,1.7c-1,0-1.7-0.8-1.7-1.7c0-1,0.8-1.7,1.7-1.7C23.2,5,24,5.8,24,6.8z M28.9,8.5c-0.1-2.3-0.6-4.4-2.3-6.1
	c-1.7-1.7-3.8-2.2-6.1-2.3c-2.4-0.1-9.6-0.1-12,0C6.2,0.2,4.1,0.7,2.4,2.4C0.7,4.1,0.2,6.2,0.1,8.5c-0.1,2.4-0.1,9.6,0,12
	c0.1,2.3,0.6,4.4,2.3,6.1c1.7,1.7,3.8,2.2,6.1,2.3c2.4,0.1,9.6,0.1,12,0c2.3-0.1,4.4-0.6,6.1-2.3c1.7-1.7,2.2-3.8,2.3-6.1
	C29,18.1,29,10.9,28.9,8.5L28.9,8.5z M25.8,23c-0.5,1.3-1.5,2.2-2.8,2.8c-1.9,0.8-6.4,0.6-8.5,0.6c-2.1,0-6.6,0.2-8.5-0.6
	c-1.3-0.5-2.2-1.5-2.8-2.8c-0.8-1.9-0.6-6.4-0.6-8.5c0-2.1-0.2-6.6,0.6-8.5C3.7,4.7,4.7,3.7,6,3.2c1.9-0.8,6.4-0.6,8.5-0.6
	c2.1,0,6.6-0.2,8.5,0.6c1.3,0.5,2.2,1.5,2.8,2.8c0.8,1.9,0.6,6.4,0.6,8.5C26.4,16.6,26.6,21.1,25.8,23z"/>
</svg>
