<?xml version="1.0" encoding="utf-8"?>
<!-- Generator: Adobe Illustrator 23.0.5, SVG Export Plug-In . SVG Version: 6.00 Build 0)  -->
<svg version="1.1" id="Capa_1" focusable="false" xmlns="http://www.w3.org/2000/svg" xmlns:xlink="http://www.w3.org/1999/xlink"
	 x="0px" y="0px" viewBox="0 0 29 29" style="enable-background:new 0 0 29 29;" xml:space="preserve">
<style type="text/css">
	.st0{fill:#47242E;}
	.st1{fill:#FFFFFF;}
</style>
<path class="st0" d="M28.9,20.5c-0.1,2.3-0.7,4.4-2.3,6.1c-1.7,1.7-3.8,2.2-6.1,2.3c-2.4,0.1-9.6,0.1-12,0c-2.3-0.1-4.4-0.7-6.1-2.3
	c-1.7-1.7-2.2-3.8-2.3-6.1c-0.1-2.4-0.1-9.6,0-12c0.1-2.3,0.6-4.4,2.3-6.1c1.7-1.7,3.8-2.2,6.1-2.3c2.4-0.1,9.6-0.1,12,0
	c2.3,0.1,4.4,0.7,6.1,2.3c1.7,1.7,2.2,3.8,2.3,6.1C29,10.9,29,18.1,28.9,20.5z"/>
<path class="st1" d="M22.9,12.8c-1.7,0-3.3-0.5-4.6-1.5V18c0,3.4-2.7,6.1-6.1,6.1c-3.4,0-6.1-2.7-6.1-6.1c0-3.4,2.7-6.1,6.1-6.1
	c0.3,0,0.6,0,0.8,0.1v3.4c-1.5-0.5-3,0.4-3.5,1.8c-0.5,1.5,0.4,3,1.8,3.5c1.5,0.5,3-0.4,3.5-1.8C15,18.6,15,18.3,15,18V4.9h3.3
	c0,0.3,0,0.6,0.1,0.8l0,0c0.2,1.2,1,2.3,2,3c0.7,0.5,1.6,0.8,2.5,0.8V12.8z"/>
</svg>
