<?xml version="1.0" encoding="utf-8"?>
<!-- Generator: Adobe Illustrator 25.2.0, SVG Export Plug-In . SVG Version: 6.00 Build 0)  -->
<svg version="1.1" id="Capa_1" focusable="false" xmlns="http://www.w3.org/2000/svg" xmlns:xlink="http://www.w3.org/1999/xlink"
	 x="0px" y="0px" viewBox="0 0 29 29" style="enable-background:new 0 0 29 29;" xml:space="preserve">
<style type="text/css">
	.st0{fill:#47242E;}
	.st1{fill:#FFFFFF;}
</style>
<path class="st0" d="M28.9,20.5c-0.1,2.3-0.6,4.4-2.3,6.1c-1.7,1.7-3.8,2.2-6.1,2.3c-2.4,0.1-9.6,0.1-12,0c-2.3-0.1-4.4-0.6-6.1-2.3
	c-1.7-1.7-2.2-3.8-2.3-6.1c-0.1-2.4-0.1-9.6,0-12c0.1-2.3,0.6-4.4,2.3-6.1s3.8-2.2,6.1-2.3c2.4-0.1,9.6-0.1,12,0
	c2.3,0.1,4.4,0.6,6.1,2.3s2.2,3.8,2.3,6.1C29,10.9,29,18.1,28.9,20.5z"/>
<path class="st1" d="M14.4,4.8c-5.3,0-9.6,4.3-9.6,9.6c0,1.6,0.5,3.4,1.3,4.8L4.8,24l5.1-1.1c1.4,0.8,3,1.1,4.7,1.1l0,0
	c5.3,0,9.6-4.3,9.6-9.6c0-2.5-1-5.1-2.8-6.8C19.5,5.8,17.1,4.8,14.4,4.8z M14.4,6.8c2,0,4,0.8,5.4,2.3c1.5,1.5,2.3,3.4,2.3,5.4
	c0,4.3-3.4,7.7-7.7,7.7c-1.3,0-2.5-0.4-3.7-0.9L10.1,21l-0.8,0.1l-1.9,0.5L8,19.8l0.1-0.8l-0.4-0.8c-0.6-1.1-1-2.5-1-3.9
	C6.7,10.2,10.1,6.8,14.4,6.8z M11,10.1c-0.1,0-0.4,0-0.6,0.3s-0.9,0.9-0.9,2s0.9,2.3,1,2.5c0.1,0.1,1.6,2.7,4.2,3.7
	c2,0.8,2.4,0.6,2.9,0.6c0.5,0,1.4-0.6,1.6-1.1c0.3-0.5,0.3-1,0.1-1.1c0-0.1-0.3-0.1-0.5-0.3s-1.4-0.8-1.6-0.8s-0.4-0.1-0.5,0.1
	c-0.1,0.3-0.6,0.8-0.8,0.9c-0.1,0.1-0.3,0.1-0.5,0s-1-0.4-1.9-1.1c-0.8-0.6-1.3-1.4-1.4-1.6c-0.1-0.3,0-0.4,0.1-0.5
	c0.1-0.1,0.3-0.3,0.4-0.4c0.1-0.1,0.1-0.3,0.3-0.4c0.1-0.1,0-0.3,0-0.4c0-0.1-0.5-1.3-0.8-1.8c-0.3-0.6-0.5-0.6-0.6-0.6
	C11.4,10.1,11.1,10.1,11,10.1z"/>
</svg>
